<svg xmlns="http://www.w3.org/2000/svg" viewBox="0 0 64 64" id="dumbbell"><path fill="#494848" d="M50.97 18.06c-1.28 0-2.32 1.04-2.32 2.32v9.3H15.49v-9.3c0-1.28-1.04-2.32-2.32-2.32-1.28 0-2.32 1.04-2.32 2.32v23.24c0 1.28 1.04 2.32 2.32 2.32 1.28 0 2.32-1.04 2.32-2.32v-9.3h33.16v9.3c0 1.28 1.04 2.32 2.32 2.32 1.28 0 2.32-1.04 2.32-2.32V20.38c0-1.28-1.04-2.32-2.32-2.32zm5.35 5.45c-1.28 0-2.32 1.04-2.32 2.32v12.34c0 1.28 1.04 2.32 2.32 2.32 1.28 0 2.32-1.04 2.32-2.32V25.83c0-1.28-1.04-2.32-2.32-2.32zm5.36 2.38c-1.28 0-2.32 1.04-2.32 2.32v7.58c0 1.28 1.04 2.32 2.32 2.32 1.28 0 2.32-1.04 2.32-2.32v-7.58c0-1.28-1.04-2.32-2.32-2.32zm-59.36 0C1.04 25.89 0 26.93 0 28.21v7.58c0 1.28 1.04 2.32 2.32 2.32 1.28 0 2.32-1.04 2.32-2.32v-7.58c0-1.28-1.04-2.32-2.32-2.32zm5.42-2.38c-1.28 0-2.32 1.04-2.32 2.32v12.34c0 1.28 1.04 2.32 2.32 2.32s2.32-1.04 2.32-2.32V25.83c0-1.28-1.03-2.32-2.32-2.32z"></path></svg>