<svg xmlns="http://www.w3.org/2000/svg" enable-background="new 0 0 64 64" viewBox="0 0 64 64" id="gym-schedule"><path fill="#494848" d="M56.1222839 11.5138044v6.8912611H4v-6.8912611h4.2581444v1.3761778c0 1.4178572 1.1622381 2.5647039 2.5992041 2.5647039h.3698502c1.436965 0 2.5992041-1.1468468 2.5992041-2.5647039v-1.3761778h13.4611206v1.3761778c0 1.4178572 1.1623039 2.5647039 2.5886936 2.5647039h.3803616c1.4264526 0 2.5886898-1.1468468 2.5886898-2.5647039v-1.3761778h13.3343353v1.3761778c0 1.4178572 1.1623039 2.5647039 2.5992699 2.5647039h.3697853c1.4370308 0 2.5992699-1.1468468 2.5992699-2.5647039v-1.3761778H56.1222839zM4 19.9699707v6.1799927h4.1400146c.4400024 0 .789978.3500366.789978.7800293s-.3499756.789978-.789978.789978H4v4.9500122h4.1400146c.4400024 0 .789978.3499756.789978.7800293 0 .4299927-.3499756.7799683-.789978.7799683H4v4.8599854h4.1400146c.4400024 0 .789978.3500366.789978.7800293 0 .4400024-.3499756.7799683-.789978.7799683H4V45.5h4.1400146c.4400024 0 .789978.3599854.789978.7799683 0 .4400024-.3499756.7800293-.789978.7800293H4v6.8399658h40.0999756c-1.0499878-1.5199585-1.6599731-3.3499756-1.6599731-5.3200073 0-2.2599487.7999878-4.3299561 2.1300049-5.9599609C43.7399902 40.4899902 42 35.9099731 42.8900146 32.7199707 43.4299927 30.789978 46.4099731 29.8299561 52 29.7799683c1.5900269.0100098 2.960022.1000366 4.1199951.2700195V19.9699707H4zM28.7199707 23.4500122h2.6900024c.4300537 0 .7900391.3499756.7900391.7799683s-.3599854.7800293-.7900391.7800293h-2.6900024c-.4399414 0-.789978-.3500366-.789978-.7800293S28.2800293 23.4500122 28.7199707 23.4500122zM12.9400024 21.789978c1.0900269 0 1.9699707.8800049 1.9699707 1.960022 0 1.0799561-.8799438 1.9500122-1.9699707 1.9500122-1.0999756 0-1.9799805-.8700562-1.9799805-1.9500122C10.960022 22.6699829 11.8400269 21.789978 12.9400024 21.789978zM14.2800293 49.9599609h-2.6800537c-.4499512 0-.7999878-.3399658-.7999878-.7799683 0-.4299927.3500366-.7800293.7999878-.7800293h2.6800537c.4299927 0 .789978.3500366.789978.7800293C15.0700073 49.6199951 14.710022 49.9599609 14.2800293 49.9599609zM14.2800293 43.7299805h-2.6800537c-.4499512 0-.7999878-.3599854-.7999878-.7799683 0-.4400024.3500366-.7900391.7999878-.7900391h2.6800537c.4299927 0 .789978.3500366.789978.7900391C15.0700073 43.3699951 14.710022 43.7299805 14.2800293 43.7299805zM14.2800293 37.4799805h-2.6800537c-.4499512 0-.7999878-.3399658-.7999878-.7799683 0-.4300537.3500366-.7800293.7999878-.7800293h2.6800537c.4299927 0 .789978.3499756.789978.7800293C15.0700073 37.1400146 14.710022 37.4799805 14.2800293 37.4799805zM14.2800293 31.25h-2.6800537c-.4499512 0-.7999878-.3599854-.7999878-.7800293 0-.4299927.3500366-.7799683.7999878-.7799683h2.6800537c.4299927 0 .789978.3499756.789978.7799683C15.0700073 30.8900146 14.710022 31.25 14.2800293 31.25zM22.8400269 49.9599609h-2.6800537c-.4400024 0-.7999878-.3399658-.7999878-.7799683 0-.4299927.3599854-.7800293.7999878-.7800293h2.6800537c.4400024 0 .789978.3500366.789978.7800293C23.6300049 49.6199951 23.2800293 49.9599609 22.8400269 49.9599609zM22.8400269 43.7299805h-2.6800537c-.4400024 0-.7999878-.3599854-.7999878-.7799683 0-.4400024.3599854-.7900391.7999878-.7900391h2.6800537c.4400024 0 .789978.3500366.789978.7900391C23.6300049 43.3699951 23.2800293 43.7299805 22.8400269 43.7299805zM22.8400269 37.4799805h-2.6800537c-.4400024 0-.7999878-.3399658-.7999878-.7799683 0-.4300537.3599854-.7800293.7999878-.7800293h2.6800537c.4400024 0 .789978.3499756.789978.7800293C23.6300049 37.1400146 23.2800293 37.4799805 22.8400269 37.4799805zM22.8400269 31.25h-2.6800537c-.4400024 0-.7999878-.3599854-.7999878-.7800293 0-.4299927.3599854-.7799683.7999878-.7799683h2.6800537c.4400024 0 .789978.3499756.789978.7799683C23.6300049 30.8900146 23.2800293 31.25 22.8400269 31.25zM22.8400269 25.0100098h-2.6800537c-.4400024 0-.7999878-.3500366-.7999878-.7800293s.3599854-.7799683.7999878-.7799683h2.6800537c.4400024 0 .789978.3499756.789978.7799683S23.2800293 25.0100098 22.8400269 25.0100098zM31.4099731 49.9599609h-2.6900024c-.4399414 0-.789978-.3399658-.789978-.7799683 0-.4299927.3500366-.7800293.789978-.7800293h2.6900024c.4300537 0 .7900391.3500366.7900391.7800293C32.2000122 49.6199951 31.8400269 49.9599609 31.4099731 49.9599609zM30.0700073 41.0199585c1.0700073 0 1.9400024.8600464 1.9400024 1.9300537 0 1.0599976-.8699951 1.9299927-1.9400024 1.9299927-1.0800171 0-1.960022-.8699951-1.960022-1.9299927C28.1099854 41.8800049 28.9899902 41.0199585 30.0700073 41.0199585zM31.9699707 37.2600098c-.1499634.1399536-.3499756.2199707-.5599976.2199707h-2.6900024c-.1099854 0-.2099609-.0200195-.3099976-.0599976-.0899658-.039978-.1799927-.0999756-.25-.1599731-.1399536-.1400146-.2299805-.3400269-.2299805-.5500488 0-.1099854.0200195-.2199707.0599976-.3099976.0400391-.0999756.1000366-.1799927.1699829-.25.0700073-.0700073.1600342-.1300049.25-.1699829.0900269-.039978.2000122-.0599976.3099976-.0599976h2.6900024c.1100464 0 .210022.0200195.3000488.0599976.0999756.039978.1799927.0999756.2599487.1699829.1400146.1500244.2300415.3500366.2300415.5599976C32.2000122 36.9199829 32.1099854 37.1199951 31.9699707 37.2600098zM33.6799927 28.4599609L30.7000122 32c-.1900024.2299805-.460022.3599854-.7700195.3599854-.0100098 0-.0200195 0-.0200195 0-.3199463-.0100098-.5999756-.1500244-.7799683-.4000244l-1.4299927-1.8699951C27.4400024 29.75 27.5100098 29.2600098 27.8599854 29c.3500366-.2600098.8400269-.1900024 1.1099854.1499634l.9800415 1.3000488 2.5-3c.289978-.3200073.789978-.3700562 1.1199951-.1000366C33.9099731 27.6300049 33.9500122 28.1199951 33.6799927 28.4599609zM39.9699707 49.9599609h-2.6899414c-.4300537 0-.7900391-.3399658-.7900391-.7799683 0-.4299927.3599854-.7800293.7900391-.7800293h2.6899414c.4400024 0 .7900391.3500366.7900391.7800293C40.7600098 49.6199951 40.4099731 49.9599609 39.9699707 49.9599609zM39.9699707 43.7299805h-2.6899414c-.4300537 0-.7900391-.3599854-.7900391-.7799683 0-.4400024.3599854-.7900391.7900391-.7900391h2.6899414c.4400024 0 .7900391.3500366.7900391.7900391C40.7600098 43.3699951 40.4099731 43.7299805 39.9699707 43.7299805zM39.9699707 37.4799805h-2.6899414c-.4300537 0-.7900391-.3399658-.7900391-.7799683 0-.4300537.3599854-.7800293.7900391-.7800293h2.6899414c.4400024 0 .7900391.3499756.7900391.7800293C40.7600098 37.1400146 40.4099731 37.4799805 39.9699707 37.4799805zM39.9699707 31.25h-2.6899414c-.4300537 0-.7900391-.3599854-.7900391-.7800293 0-.4299927.3599854-.7799683.7900391-.7799683h2.6899414c.4400024 0 .7900391.3499756.7900391.7799683C40.7600098 30.8900146 40.4099731 31.25 39.9699707 31.25zM39.9699707 25.0100098h-2.6899414c-.4300537 0-.7900391-.3500366-.7900391-.7800293s.3599854-.7799683.7900391-.7799683h2.6899414c.4400024 0 .7900391.3499756.7900391.7799683S40.4099731 25.0100098 39.9699707 25.0100098zM48.539978 25.0100098h-2.6900024c-.4400024 0-.789978-.3500366-.789978-.7800293s.3499756-.7799683.789978-.7799683h2.6900024c.4299927 0 .7900391.3499756.7900391.7799683S48.9699707 25.0100098 48.539978 25.0100098z"></path><path fill="#494848" d="M31.9699707 37.2600098c-.1499634.1399536-.3499756.2299805-.5599976.2299805h-2.6900024c-.1099854 0-.2199707-.0200195-.3099976-.0700073.1000366.039978.2000122.0599976.3099976.0599976h2.6900024C31.6199951 37.4799805 31.8200073 37.3999634 31.9699707 37.2600098zM12.2414961 8.4904385v4.3995438c0 .5525837-.4543314 1.0008736-1.0142975 1.0008736h-.3698502c-.559967 0-1.0142984-.4482899-1.0142984-1.0008736V8.4904385C9.84305 7.9482903 10.2973814 7.5 10.8573484 7.5h.3698502C11.7871647 7.5 12.2414961 7.9482903 12.2414961 8.4904385zM31.2603645 8.4904385v4.3995438c0 .5525837-.4543324 1.0008736-1.0037861 1.0008736h-.3803616c-.559967 0-1.003788-.4482899-1.003788-1.0008736V8.4904385c0-.5421481.443821-.9904385 1.003788-.9904385h.3803616C30.8060322 7.5 31.2603645 7.9482903 31.2603645 8.4904385zM50.1630211 8.4904385v4.3995438c0 .5525837-.4543304 1.0008736-1.0143623 1.0008736h-.3697853c-.5600319 0-1.0143623-.4482899-1.0143623-1.0008736V8.4904385C47.7645111 7.9482903 48.2188416 7.5 48.7788734 7.5h.3697853C49.7086906 7.5 50.1630211 7.9482903 50.1630211 8.4904385zM58.2354889 41.3829803c-1.6694527-1.4178581-3.8460541-2.2936325-6.2234116-2.2936325s-4.5433807.8757744-6.2234116 2.2936325c-.8241158-2.1580925-2.0498123-5.8279037-1.3629951-8.2466316.1162109-.4065475.9932098-1.7306118 7.5758324-1.7931614 6.6037712.0625496 7.4913483 1.3866138 7.596981 1.7931614C60.285305 35.5550766 59.0596085 39.2248878 58.2354889 41.3829803z"></path><ellipse cx="52.012" cy="48.577" fill="#494848" rx="7.988" ry="7.923"></ellipse></svg>