<svg xmlns="http://www.w3.org/2000/svg" enable-background="new 0 0 64 64" viewBox="0 0 64 64" id="measure-tape"><path fill="#494848" d="M27.38978 29.9931755v9.1541138C25.6706848 41.4009857 21.274065 43 16.085556 43 9.407258 43 4 40.3492355 4 37.0653343v-8.0595226c1.7816043 2.7473145 6.4491186 4.6683331 12.085556 4.6683331C21.0240288 33.6741447 25.2331219 32.2039032 27.38978 29.9931755zM60 27.3316689V38.0527H28.95257V27.3316689h2.7192421v5.7951469c0 .4399719.3542614.8048782.7813931.8048782.4375648 0 .7813988-.3649063.7813988-.8048782v-5.7951469h3.2505989V32c0 .4507141.3438301.8048782.781395.8048782.4271965 0 .781395-.3541641.781395-.8048782v-4.6683311h3.2401695v3.5521908c0 .4400368.3542633.8048782.781395.8048782.4376297 0 .781395-.3648415.781395-.8048782v-3.5521908h3.2506027v5.7951469c0 .4399719.3542595.8048782.781395.8048782.4271965 0 .781395-.3649063.781395-.8048782v-5.7951469h3.2402344V32c0 .4507141.3541946.8048782.781395.8048782.4375648 0 .781395-.3541641.781395-.8048782v-4.6683311h3.2505989v5.7951469c0 .4399719.3541985.8048782.781395.8048782.4271355 0 .781395-.3649063.781395-.8048782v-5.7951469H60z"></path><ellipse cx="16.086" cy="26.527" fill="#494848" rx="5.636" ry="2.071"></ellipse><path fill="#494848" d="M16.085556,21c-6.1261444,0-11.3041611,2.5326672-11.3041611,5.5267906
			c0,3.0049305,5.1780162,5.5375977,11.3041611,5.5375977c6.1365738,0,11.3146534-2.5326672,11.3146534-5.5375977
			C27.4002094,23.5326672,22.2221298,21,16.085556,21z M16.085556,30.2077579c-4.1049328,0-7.1992283-1.5775299-7.1992283-3.6809673
			c0-2.0926304,3.0942955-3.6809692,7.1992283-3.6809692s7.1992912,1.5883389,7.1992912,3.6809692
			C23.2848473,28.630228,20.1904888,30.2077579,16.085556,30.2077579z"></path></svg>